<svg width="317" height="316" viewBox="0 0 317 316" fill="none" xmlns="http://www.w3.org/2000/svg">
<path d="M74.28 74.09C80.3695 74.0737 86.4018 75.2646 92.0283 77.5938C97.6548 79.923 102.764 83.3443 107.06 87.66L154.57 135.18C156.221 136.826 158.458 137.751 160.79 137.751C163.122 137.751 165.359 136.826 167.01 135.18L214.35 87.84C218.643 83.5189 223.751 80.0934 229.378 77.7623C235.005 75.4311 241.039 74.2406 247.13 74.26H252.83L192.71 14.14C188.258 9.68646 182.972 6.15364 177.155 3.74331C171.337 1.33299 165.102 0.092392 158.805 0.092392C152.508 0.092392 146.273 1.33299 140.455 3.74331C134.638 6.15364 129.352 9.68646 124.9 14.14L65 74.09H74.28Z" fill="#FAFAFA"/>
<path d="M302.56 124L266.23 87.67C265.411 88.0049 264.535 88.1814 263.65 88.19H247.13C238.533 88.2115 230.293 91.6256 224.2 97.69L176.86 145C172.597 149.256 166.819 151.646 160.795 151.646C154.771 151.646 148.993 149.256 144.73 145L97.21 97.51C91.1187 91.4419 82.878 88.0242 74.28 88H54C53.1642 87.9812 52.3383 87.8153 51.56 87.51L15 124C6.02035 132.999 0.977234 145.192 0.977234 157.905C0.977234 170.618 6.02035 182.811 15 191.81L51.48 228.29C52.2566 227.979 53.0836 227.813 53.92 227.8H74.28C82.8778 227.775 91.1181 224.357 97.21 218.29L144.72 170.78C153.31 162.2 168.28 162.2 176.86 170.78L224.2 218.11C230.293 224.174 238.533 227.588 247.13 227.61H263.65C264.535 227.616 265.411 227.793 266.23 228.13L302.56 191.8C307.014 187.348 310.546 182.062 312.957 176.245C315.367 170.427 316.608 164.192 316.608 157.895C316.608 151.598 315.367 145.363 312.957 139.545C310.546 133.728 307.014 128.442 302.56 123.99" fill="#FAFAFA"/>
<path d="M247.13 241.53C241.043 241.552 235.012 240.368 229.386 238.045C223.76 235.723 218.649 232.309 214.35 228L167 180.62C165.325 179.019 163.097 178.125 160.78 178.125C158.463 178.125 156.235 179.019 154.56 180.62L107.05 228.13C102.753 232.445 97.6444 235.866 92.018 238.195C86.3916 240.525 80.3594 241.716 74.27 241.7H65L125 301.7C133.999 310.68 146.192 315.723 158.905 315.723C171.618 315.723 183.811 310.68 192.81 301.7L252.93 241.57L247.13 241.53Z" fill="#FAFAFA"/>
</svg>
